PathFileType	4	(X/Y/Z)	C:\Users\WrightLab\Desktop\Jo\P2_Trial34.trc
DataRate	CameraRate	NumFrames	NumMarkers	Units	OrigDataRate	OrigDataStartFrame	OrigNumFrames
100.00	100.00	       81	19	mm	100.00	581	       663
Frame#	Time	Headset_Front			Headset_Back			Headset_Left			Headset_Right			Left_Shoulder			Right_Shoulder			Sternum			C7			Left Elbow			Right Elbow			Left Wrist			Right Wrist			Left ASIS			Right ASIS			S2			Left Knee			Right Knee			Left Ankle			Right Ankle			
		X1	Y1	Z1	X2	Y2	Z2	X3	Y3	Z3	X4	Y4	Z4	X5	Y5	Z5	X6	Y6	Z6	X7	Y7	Z7	X8	Y8	Z8	X9	Y9	Z9	X10	Y10	Z10	X11	Y11	Z11	X12	Y12	Z12	X13	Y13	Z13	X14	Y14	Z14	X15	Y15	Z15	X16	Y16	Z16	X17	Y17	Z17	X18	Y18	Z18	X19	Y19	Z19	

581	5.800																71.62718	1173.36829	2362.51978													113.54917	1000.05042	2478.90991							-212.94870	1038.71082	2514.37402				33.77305	514.97473	2334.43628										
582	5.810																62.96363	1171.14343	2358.76807													105.50920	997.77582	2473.07202							-216.39972	1040.36072	2519.35205				30.53134	516.78436	2336.03149										
583	5.820																55.03532	1169.40771	2354.65308													97.06198	994.59485	2467.42090							-219.09485	1041.47852	2523.46924				26.35892	518.77734	2335.95898										
584	5.830																46.66117	1167.63647	2350.37134													88.80091	991.44946	2460.65430							-221.54169	1041.62683	2527.32764				22.13804	519.15765	2336.43433										
585	5.840																															81.03507	986.62122	2453.73877							-223.66284	1042.20337	2531.13013				16.60522	521.55017	2335.30737										
586	5.850																															72.69901	981.93243	2447.46265							-225.48904	1042.77039	2534.76123				11.18679	522.91339	2334.48901										
587	5.860																															63.80122	976.18250	2439.58765							-226.94913	1043.16870	2538.59302				5.22243	525.10175	2333.82593										
588	5.870																															55.36644	970.93243	2432.71484							-227.08986	1043.61096	2540.67407				-1.80247	527.13611	2332.77856										
589	5.880																															46.18909	964.30719	2424.38794							-228.01717	1044.74109	2544.44556				-9.93927	527.41052	2331.12988										
590	5.890																															36.88198	958.30774	2416.64624							-228.10951	1046.04956	2546.92065				-17.72545	529.23846	2329.87769										
591	5.900																															27.37264	952.66791	2408.36768							-227.84792	1047.13098	2549.34009				-27.10835	529.95142	2327.97510										
592	5.910																															17.11182	946.60480	2400.41992							-227.93633	1048.44849	2551.61377				-37.09995	530.52826	2322.90112										
593	5.920																															7.57565	940.61578	2391.41748							-227.93332	1049.76489	2553.55713				-46.79755	530.37610	2320.41357										
594	5.930																															-2.25989	936.16467	2383.21362							-227.42079	1050.56921	2554.79321				-56.96133	530.07440	2317.35791										
595	5.940																																								-227.00587	1051.18774	2555.80957				-67.33113	528.94958	2314.98364										
596	5.950																																								-227.10925	1052.13403	2557.57666				-78.97079	528.32465	2310.46411										
597	5.960																																								-226.71617	1052.75391	2558.52222				-90.97997	526.72693	2306.11450										
598	5.970																																								-226.16470	1053.30432	2559.23267				-104.62611	524.90314	2303.81348										
599	5.980																																								-225.47556	1053.89514	2559.70776				-115.59486	524.39001	2298.14014										
600	5.990																																								-225.03165	1054.62891	2560.76074				-129.92015	520.89996	2301.25293										
601	6.000																																								-224.05956	1055.03223	2560.96313				-142.54399	522.20392	2290.20630										
602	6.010																																								-222.89888	1055.01526	2560.09912				-157.56288	519.87799	2291.96021										
603	6.020																																								-222.29807	1056.09692	2559.80273				-171.80583	519.70300	2290.71289										
604	6.030																																								-221.11884	1056.64172	2558.95483				-185.32440	518.18030	2292.04785										
605	6.040																																								-219.31117	1057.36023	2558.44434				-198.36200	517.28687	2292.24097										
606	6.050																																														-211.03026	516.11292	2290.65112										
607	6.060																																														-223.24879	515.11633	2288.39380										
608	6.070																																														-234.86382	512.36145	2294.27271										
609	6.080																																														-245.64322	511.63297	2291.86206										
610	6.090																																														-256.26904	510.57089	2295.34595										
611	6.100																																														-265.84561	512.63367	2290.40845										
612	6.110																																														-274.97437	513.67010	2291.29712										
613	6.120																																														-284.86374	515.43994	2288.39697										
614	6.130																																														-292.83075	514.66071	2289.68164										
615	6.140																																														-302.15698	516.40948	2285.99536										
616	6.150																																														-311.30563	517.06000	2286.85864										
617	6.160																																														-319.90503	517.49799	2284.13159										
618	6.170																																														-330.13004	519.21753	2281.60596										
619	6.180																																														-341.19205	520.61646	2280.19189										
620	6.190																																														-352.34497	521.90295	2277.27466										
621	6.200																																														-363.86896	522.40015	2275.24097										
622	6.210																																														-375.95721	522.86804	2278.44482										
623	6.220																																														-388.07214	524.83154	2276.58813										
624	6.230																																														-399.86346	527.87885	2274.79834										
625	6.240																																														-411.47037	529.56042	2274.49194										
626	6.250																																														-422.31235	530.90515	2275.98828										
627	6.260																																														-431.87845	531.54608	2278.82861										
628	6.270																																														-441.57080	535.08289	2274.33960										
629	6.280																																														-449.67905	532.95929	2284.02905										
630	6.290																																														-457.09824	535.18463	2282.12573										
631	6.300																																														-463.90216	535.25238	2283.60620										
632	6.310																																														-470.55969	535.00806	2283.71167										
633	6.320																																														-476.73975	533.92059	2289.47412										
634	6.330																																														-483.05048	533.29346	2292.35938										
635	6.340																																														-489.39557	531.07562	2298.24683										
636	6.350																																														-496.09372	532.28809	2297.82349										
637	6.360																																														-501.50363	529.15204	2307.28931										
638	6.370																																														-507.05603	530.31812	2307.79150										
639	6.380																																														-512.43024	529.81885	2312.82080										
640	6.390																																														-517.41821	527.62561	2319.28711										
641	6.400																																														-521.42865	527.09326	2323.02832										
642	6.410																																														-525.05322	525.93951	2327.70605										
643	6.420																																														-529.27307	526.29242	2335.47168										
644	6.430																																														-531.47449	526.11658	2338.29224										
645	6.440																																														-534.47937	526.13812	2347.59644										
646	6.450																																														-535.81372	526.09802	2354.28540										
647	6.460																																														-536.55267	527.48401	2358.03589										
648	6.470																																														-537.08234	527.47101	2366.32861										
649	6.480																																														-536.78918	528.42932	2370.90942										
650	6.490																																														-536.66882	529.13757	2377.64893										
651	6.500																																														-535.71973	528.80011	2384.55151										
652	6.510																																														-534.80652	527.77856	2395.86475										
653	6.520																																														-533.27484	528.97302	2399.74854										
654	6.530																																														-531.72974	530.79901	2399.42822										
655	6.540																																														-531.08813	529.98462	2406.78979										
656	6.550																																																										
657	6.560																																																										
658	6.570																																																										
659	6.580																																																										
660	6.590																																																										
661	6.600																																																										
